<?xml version="1.0" encoding="UTF-8"?>
<svg width="189px" height="232px" viewBox="0 0 189 232" version="1.1" xmlns="http://www.w3.org/2000/svg" xmlns:xlink="http://www.w3.org/1999/xlink">
    <!-- Generator: Sketch 53.1 (72631) - https://sketchapp.com -->
    <title>Fill 73</title>
    <desc>Created with Sketch.</desc>
    <g id="Page-1" stroke="none" stroke-width="1" fill="none" fill-rule="evenodd">
        <g id="Artboard" transform="translate(-123.000000, -85.000000)">
            <g id="Fill-73" transform="translate(123.000000, 85.000000)">
                <path d="M185.960085,83.2417922 C187.104085,74.6287922 190.754085,65.1907922 187.397085,36.7607922 C185.143085,17.6517922 177.689085,7.30879225 173.043085,2.58079225 C170.357085,-0.152207752 166.047085,-0.787207752 162.592085,1.02479225 C157.344085,3.77879225 149.047085,10.6797922 138.019085,27.7357922 C127.278085,44.3437922 122.403085,57.4857922 120.192085,66.1337922 C118.584085,72.4227922 112.260085,76.6147922 105.439085,75.8377922 C101.847085,75.4287922 97.9550855,75.1187922 94.3920855,75.1187922 C90.8280855,75.1187922 86.9370855,75.4287922 83.3450855,75.8377922 C76.5230855,76.6147922 70.1980855,72.4227922 68.5910855,66.1337922 C66.3800855,57.4857922 61.5050855,44.3437922 50.7650855,27.7357922 C39.7360855,10.6797922 31.4390855,3.77879225 26.1910855,1.02479225 C22.7360855,-0.787207752 18.4260855,-0.152207752 15.7400855,2.58079225 C11.0950855,7.30879225 3.64108549,17.6517922 1.38608549,36.7607922 C-1.97091451,65.1907922 1.68008549,74.6287922 2.82308549,83.2417922 C3.45708549,88.0097922 0.427085491,98.5847922 3.78208549,108.963792 C7.18208549,119.477792 17.0940855,129.226792 18.1650855,138.296792 C19.6040855,150.481792 16.7580855,152.524792 15.5700855,157.613792 C14.4290855,162.505792 14.4920855,176.283792 15.7680855,181.618792 C20.0820855,199.669792 28.7120855,215.013792 36.8620855,221.782792 C45.0120855,228.551792 50.7650855,232.160792 56.0380855,231.709792 C57.5050855,231.584792 59.0830855,231.074792 60.5970855,230.405792 C65.6340855,228.175792 77.0370855,231.709792 94.3920855,231.709792 C112.335085,231.709792 123.149085,228.175792 128.186085,230.405792 C129.700085,231.074792 131.278085,231.584792 132.745085,231.709792 C138.019085,232.160792 143.772085,228.551792 151.921085,221.782792 C160.071085,215.013792 168.700085,199.669792 173.016085,181.618792 C174.291085,176.283792 174.355085,162.505792 173.212085,157.613792 C172.024085,152.524792 169.180085,150.481792 170.618085,138.296792 C171.689085,129.226792 181.602085,119.477792 185.001085,108.963792 C188.356085,98.5847922 185.326085,88.0097922 185.960085,83.2417922" fill="#1E1E1E"></path>
                <path d="M148.267685,81.7719922 C149.090685,81.8559922 149.356685,80.3099922 148.588685,79.8989922 C141.525685,76.1229922 124.758685,66.8649922 94.3906855,66.8649922 C64.0256855,66.8649922 47.2596855,76.1219922 40.1946855,79.8979922 C39.4266855,80.3089922 39.6926855,81.8559922 40.5166855,81.7719922 C48.9476855,80.9099922 68.8466855,75.2979922 94.3906855,75.2979922 C119.936685,75.2979922 139.836685,80.9099922 148.267685,81.7719922" id="Fill-75" fill="#FFFFFF"></path>
                <path d="M94.3921855,57.5212126 L106.367285,75.0888922 C106.367285,75.0888922 94.8712855,96.3288922 106.377285,119.343892 C117.883285,142.358892 138.452285,147.169892 147.186285,161.311892 C159.172285,180.716892 146.036285,217.990892 129.928285,209.146892 C124.175285,205.986892 114.801285,189.855892 106.358285,182.158892 C102.219285,178.385892 100.018285,175.344892 98.3662855,170.739892 C95.7632855,163.486892 96.3692855,157.701892 96.3092855,155.444892 C96.2132855,151.808892 103.021285,151.834892 103.021285,156.798892 C103.021285,160.859892 109.732285,160.408892 113.089285,153.640892 C115.001254,149.781956 112.609364,139.651226 94.3921855,139.650892 C76.1741855,139.650892 73.7821855,149.781892 75.6941855,153.640892 C79.0511855,160.408892 85.7621855,160.859892 85.7621855,156.798892 C85.7621855,151.834892 92.5701855,151.808892 92.4741855,155.444892 C92.4141855,157.701892 93.0201855,163.486892 90.4171855,170.739892 C88.7651855,175.344892 86.5641855,178.385892 82.4251855,182.158892 C73.9821855,189.855892 64.6081855,205.986892 58.8551855,209.146892 C42.7471855,217.990892 29.6101855,180.716892 41.5961855,161.311892 C50.3311855,147.169892 70.9001855,142.358892 82.4061855,119.343892 C93.9121855,96.3288922 82.4161855,75.0888922 82.4161855,75.0888922 L94.3921855,57.5198922 Z" id="Combined-Shape" fill="#FFFFFF"></path>
                <path d="M66.7217855,116.625992 C66.7217855,125.038992 59.4767855,131.857992 50.5387855,131.857992 C41.6017855,131.857992 34.3567855,125.038992 34.3567855,116.625992 C34.3567855,108.212992 41.6017855,101.392992 50.5387855,101.392992 C59.4767855,101.392992 66.7217855,108.212992 66.7217855,116.625992" id="Fill-81" fill="#FFFFFF"></path>
                <path d="M61.7881855,117.539092 C61.7881855,124.911092 55.4381855,130.888092 47.6071855,130.888092 C39.7751855,130.888092 33.4261855,124.911092 33.4261855,117.539092 C33.4261855,110.167092 39.7751855,104.190092 47.6071855,104.190092 C55.4381855,104.190092 61.7881855,110.167092 61.7881855,117.539092" id="Fill-83" fill="#1E1E1E"></path>
                <path d="M57.3946855,112.116292 C57.3946855,114.471292 55.3666855,116.380292 52.8656855,116.380292 C50.3636855,116.380292 48.3356855,114.471292 48.3356855,112.116292 C48.3356855,109.762292 50.3636855,107.853292 52.8656855,107.853292 C55.3666855,107.853292 57.3946855,109.762292 57.3946855,112.116292" id="Fill-85" fill="#FFFFFF"></path>
                <path d="M152.976685,116.625992 C152.976685,125.038992 145.731685,131.857992 136.793685,131.857992 C127.856685,131.857992 120.611685,125.038992 120.611685,116.625992 C120.611685,108.212992 127.856685,101.392992 136.793685,101.392992 C145.731685,101.392992 152.976685,108.212992 152.976685,116.625992" id="Fill-87" fill="#FFFFFF"></path>
                <path d="M148.043085,117.539092 C148.043085,124.911092 141.694085,130.888092 133.862085,130.888092 C126.030085,130.888092 119.682085,124.911092 119.682085,117.539092 C119.682085,110.167092 126.030085,104.190092 133.862085,104.190092 C141.694085,104.190092 148.043085,110.167092 148.043085,117.539092" id="Fill-89" fill="#1E1E1E"></path>
                <path d="M143.649585,112.116292 C143.649585,114.471292 141.621585,116.380292 139.120585,116.380292 C136.618585,116.380292 134.590585,114.471292 134.590585,112.116292 C134.590585,109.762292 136.618585,107.853292 139.120585,107.853292 C141.621585,107.853292 143.649585,109.762292 143.649585,112.116292" id="Fill-91" fill="#FFFFFF"></path>
            </g>
        </g>
    </g>
</svg>